<svg width="130" height="130" viewBox="0 0 130 130" fill="none" xmlns="http://www.w3.org/2000/svg">
<g id="error-inspect-ios11-svgrepo-com 2" clip-path="url(#clip0_618_3146)">
<path id="Vector" d="M36.5625 13.2031C37.1651 13.2031 37.7542 13.0244 38.2553 12.6896C38.7563 12.3548 39.1468 11.879 39.3774 11.3222C39.6081 10.7655 39.6684 10.1529 39.5508 9.56184C39.4333 8.9708 39.1431 8.4279 38.717 8.00179C38.2909 7.57567 37.748 7.28549 37.1569 7.16792C36.5659 7.05036 35.9533 7.1107 35.3965 7.34131C34.8398 7.57192 34.3639 7.96244 34.0291 8.4635C33.6943 8.96455 33.5156 9.55364 33.5156 10.1563C33.5156 10.9643 33.8366 11.7393 34.408 12.3107C34.9794 12.8821 35.7544 13.2031 36.5625 13.2031ZM36.5625 9.14063C36.7634 9.14063 36.9597 9.20019 37.1267 9.31179C37.2938 9.42339 37.4239 9.58201 37.5008 9.76759C37.5777 9.95317 37.5978 10.1574 37.5586 10.3544C37.5194 10.5514 37.4227 10.7324 37.2807 10.8744C37.1386 11.0164 36.9577 11.1132 36.7606 11.1524C36.5636 11.1915 36.3594 11.1714 36.1738 11.0946C35.9883 11.0177 35.8296 10.8875 35.718 10.7205C35.6064 10.5535 35.5469 10.3571 35.5469 10.1563C35.5469 9.88689 35.6539 9.62856 35.8443 9.4381C36.0348 9.24763 36.2931 9.14063 36.5625 9.14063Z" fill="#E98862"/>
<path id="Vector_2" d="M44.6875 12.1875C45.8093 12.1875 46.7188 11.2781 46.7188 10.1562C46.7188 9.03442 45.8093 8.125 44.6875 8.125C43.5657 8.125 42.6562 9.03442 42.6562 10.1562C42.6562 11.2781 43.5657 12.1875 44.6875 12.1875Z" fill="#E98862"/>
<path id="Vector_3" d="M28.4375 12.1875C29.5593 12.1875 30.4688 11.2781 30.4688 10.1562C30.4688 9.03442 29.5593 8.125 28.4375 8.125C27.3157 8.125 26.4062 9.03442 26.4062 10.1562C26.4062 11.2781 27.3157 12.1875 28.4375 12.1875Z" fill="#E98862"/>
<path id="Vector_4" d="M65 37.5781C59.1747 37.5781 53.4803 39.3055 48.6367 42.5419C43.7932 45.7782 40.0181 50.3782 37.7889 55.76C35.5596 61.1419 34.9764 67.0639 36.1128 72.7773C37.2493 78.4906 40.0544 83.7387 44.1735 87.8578C48.2926 91.9768 53.5406 94.782 59.254 95.9184C64.9673 97.0549 70.8894 96.4716 76.2712 94.2424C81.6531 92.0131 86.253 88.2381 89.4894 83.3945C92.7257 78.551 94.4531 72.8565 94.4531 67.0312C94.4478 59.2214 91.3429 51.7331 85.8206 46.2107C80.2982 40.6883 72.8098 37.5835 65 37.5781ZM65 92.4219C59.9782 92.4219 55.0692 90.9327 50.8937 88.1428C46.7183 85.3528 43.4639 81.3874 41.5421 76.7478C39.6204 72.1083 39.1176 67.0031 40.0973 62.0778C41.077 57.1525 43.4952 52.6283 47.0461 49.0774C50.5971 45.5264 55.1212 43.1082 60.0465 42.1285C64.9718 41.1488 70.0771 41.6516 74.7166 43.5734C79.3561 45.4951 83.3216 48.7495 86.1115 52.925C88.9015 57.1004 90.3906 62.0095 90.3906 67.0312C90.3799 73.762 87.7014 80.2139 82.942 84.9733C78.1827 89.7326 71.7307 92.4111 65 92.4219Z" fill="#E98862"/>
<path id="Vector_5" d="M126.344 114.847C120.838 105.704 113.269 97.9758 104.244 92.2797C103.549 91.8433 102.739 91.6272 101.92 91.6598C101.101 91.6925 100.31 91.9723 99.6531 92.4625L96.4641 89.375C100.282 84.0322 102.67 77.8016 103.4 71.2756C104.13 64.7496 103.178 58.1454 100.636 52.0909C98.0929 46.0365 94.0436 40.7332 88.8728 36.6855C83.702 32.6378 77.5816 29.9803 71.0937 28.9656V10.1562C71.0937 7.46264 70.0237 4.87936 68.119 2.9747C66.2144 1.07003 63.6311 0 60.9375 0L12.1875 0C10.8538 0 9.53308 0.262699 8.30087 0.773098C7.06866 1.2835 5.94904 2.0316 5.00595 2.9747C3.10128 4.87936 2.03125 7.46264 2.03125 10.1562V18.2812C1.49253 18.2812 0.975873 18.4953 0.594939 18.8762C0.214006 19.2571 0 19.7738 0 20.3125L0 28.4375C0 28.9762 0.214006 29.4929 0.594939 29.8738C0.975873 30.2547 1.49253 30.4687 2.03125 30.4687V34.5312C1.49253 34.5312 0.975873 34.7453 0.594939 35.1262C0.214006 35.5071 0 36.0238 0 36.5625L0 44.6875C0 45.2262 0.214006 45.7429 0.594939 46.1238C0.975873 46.5047 1.49253 46.7187 2.03125 46.7187V119.844C2.03125 122.537 3.10128 125.121 5.00595 127.025C5.94904 127.968 7.06866 128.716 8.30087 129.227C9.53308 129.737 10.8538 130 12.1875 130H60.9375C63.6311 130 66.2144 128.93 68.119 127.025C70.0237 125.121 71.0937 122.537 71.0937 119.844V105.097C77.8873 104.018 84.2689 101.142 89.5781 96.7687L92.4625 99.6531C91.9723 100.31 91.6925 101.101 91.6598 101.92C91.6272 102.739 91.8433 103.549 92.2797 104.244C97.9758 113.269 105.704 120.838 114.847 126.344L116.127 127.623C117.651 129.148 119.719 130.005 121.875 130.005C124.031 130.005 126.099 129.148 127.623 127.623C129.148 126.099 130.005 124.031 130.005 121.875C130.005 119.719 129.148 117.651 127.623 116.127L126.344 114.847ZM122.18 115.781L119.011 118.97L115.781 122.18C114.319 121.245 112.917 120.25 111.556 119.234L115.375 115.416C115.566 115.224 115.674 114.965 115.674 114.695C115.674 114.424 115.566 114.165 115.375 113.973C115.184 113.782 114.924 113.675 114.654 113.675C114.383 113.675 114.124 113.782 113.933 113.973L109.87 118.036C108.814 117.183 107.839 116.289 106.783 115.375L115.273 106.905C117.824 109.661 120.135 112.631 122.18 115.781ZM99.5312 67.0312C99.5289 75.5231 96.3976 83.7164 90.7357 90.0453C85.0738 96.3743 77.2783 100.395 68.8391 101.339H67.9453C67.0312 101.562 65.9953 101.562 65 101.562C55.8417 101.562 47.0586 97.9244 40.5827 91.4485C34.1068 84.9727 30.4687 76.1895 30.4687 67.0312C30.4687 57.873 34.1068 49.0898 40.5827 42.614C47.0586 36.1381 55.8417 32.5 65 32.5C65.9953 32.5 67.0312 32.5 67.9453 32.6422H68.8391C77.2922 33.5878 85.099 37.6201 90.7628 43.9662C96.4266 50.3122 99.5489 58.5253 99.5312 67.0312ZM12.1875 4.0625H60.9375C62.3922 4.04218 63.8061 4.54295 64.9237 5.47431C66.0414 6.40566 66.7889 7.70613 67.0312 9.14062H60.9375C59.6253 9.15758 58.3335 9.46728 57.1562 10.0471C55.979 10.6269 54.9461 11.4623 54.1328 12.4922C53.4969 13.3218 52.6834 13.9986 51.7521 14.4731C50.8207 14.9476 49.7949 15.2077 48.75 15.2344H24.375C23.3301 15.2077 22.3043 14.9476 21.3729 14.4731C20.4415 13.9986 19.6281 13.3218 18.9922 12.4922C18.1789 11.4623 17.146 10.6269 15.9687 10.0471C14.7915 9.46728 13.4997 9.15758 12.1875 9.14062H6.19531C6.43485 7.72345 7.1676 6.43656 8.26409 5.50733C9.36058 4.5781 10.7502 4.06635 12.1875 4.0625ZM67.0312 105.625V119.844C67.0312 121.46 66.3892 123.01 65.2464 124.153C64.1036 125.295 62.5537 125.937 60.9375 125.937H12.1875C10.5713 125.937 9.02137 125.295 7.87857 124.153C6.73577 123.01 6.09375 121.46 6.09375 119.844V11.1719H12.1875C13.2324 11.1986 14.2582 11.4587 15.1896 11.9332C16.1209 12.4076 16.9344 13.0845 17.5703 13.9141C18.3836 14.944 19.4165 15.7793 20.5937 16.3591C21.771 16.939 23.0628 17.2487 24.375 17.2656H48.75C50.0622 17.2487 51.354 16.939 52.5312 16.3591C53.7085 15.7793 54.7414 14.944 55.5547 13.9141C56.1906 13.0845 57.004 12.4076 57.9354 11.9332C58.8668 11.4587 59.8926 11.1986 60.9375 11.1719H67.0312V28.4375H65C58.2723 28.4489 51.6645 30.2188 45.8318 33.5716C39.9991 36.9244 35.1441 41.7437 31.7484 47.5516L24.375 42.25C25.2788 40.7216 25.5705 38.9078 25.1916 37.1731C24.8128 35.4384 23.7913 33.9114 22.3326 32.899C20.8739 31.8866 19.0861 31.4638 17.3284 31.7157C15.5708 31.9676 13.9736 32.8754 12.8579 34.2567C11.7422 35.638 11.1907 37.3904 11.3143 39.1618C11.4378 40.9331 12.2272 42.5919 13.5239 43.805C14.8205 45.0181 16.5282 45.6954 18.3038 45.7008C20.0794 45.7063 21.7913 45.0395 23.0953 43.8344L30.7937 49.3187C27.3763 55.8996 25.9411 63.3305 26.6622 70.7107C27.3833 78.0909 30.2296 85.1035 34.8562 90.8984L25.4922 97.5C24.8428 97.9622 24.3113 98.5709 23.9408 99.2766C23.5703 99.9824 23.3711 100.765 23.3594 101.562V106.681C21.5804 106.938 19.9647 107.859 18.8375 109.259C17.7103 110.659 17.1552 112.434 17.2839 114.227C17.4126 116.02 18.2156 117.697 19.5313 118.922C20.8469 120.146 22.5776 120.827 24.375 120.827C26.1724 120.827 27.9031 120.146 29.2187 118.922C30.5344 117.697 31.3374 116.02 31.4661 114.227C31.5948 112.434 31.0397 110.659 29.9125 109.259C28.7853 107.859 27.1696 106.938 25.3906 106.681V101.562C25.3896 101.077 25.5053 100.599 25.728 100.167C25.9507 99.7359 26.2739 99.3645 26.6703 99.0844L36.0344 92.3812C39.6369 96.5289 44.086 99.8569 49.0823 102.141C54.0786 104.426 59.5062 105.614 65 105.625H67.0312ZM18.2812 43.6719C17.2769 43.6719 16.2951 43.374 15.46 42.8161C14.6249 42.2581 13.974 41.465 13.5897 40.5371C13.2053 39.6092 13.1048 38.5881 13.3007 37.6031C13.4966 36.618 13.9803 35.7132 14.6905 35.003C15.4007 34.2928 16.3055 33.8091 17.2906 33.6132C18.2756 33.4173 19.2967 33.5178 20.2246 33.9022C21.1525 34.2865 21.9456 34.9374 22.5036 35.7725C23.0615 36.6076 23.3594 37.5894 23.3594 38.5937C23.3594 39.9405 22.8244 41.2322 21.872 42.1845C20.9197 43.1369 19.628 43.6719 18.2812 43.6719ZM24.375 108.672C25.3794 108.672 26.3612 108.97 27.1963 109.528C28.0313 110.086 28.6822 110.879 29.0666 111.807C29.4509 112.735 29.5515 113.756 29.3555 114.741C29.1596 115.726 28.676 116.631 27.9658 117.341C27.2556 118.051 26.3507 118.535 25.3657 118.731C24.3806 118.926 23.3596 118.826 22.4317 118.442C21.5038 118.057 20.7107 117.406 20.1527 116.571C19.5947 115.736 19.2969 114.754 19.2969 113.75C19.2969 112.403 19.8319 111.112 20.7842 110.159C21.7366 109.207 23.0282 108.672 24.375 108.672ZM95.2453 90.9391L98.1703 93.8641L93.8641 98.1703L91.0812 95.4687C92.586 94.0705 93.9783 92.5559 95.2453 90.9391ZM95.7328 102.05L102.07 95.7125C106.397 98.4576 110.386 101.703 113.953 105.381L105.381 113.953C101.703 110.383 98.4642 106.387 95.7328 102.05ZM124.739 124.739C123.978 125.496 122.948 125.92 121.875 125.92C120.802 125.92 119.772 125.496 119.011 124.739L124.739 119.011C125.496 119.772 125.92 120.802 125.92 121.875C125.92 122.948 125.496 123.978 124.739 124.739Z" fill="#0CBC8B"/>
<path id="Vector_6" d="M67.4985 50.7812C67.2045 50.3979 66.8262 50.0873 66.393 49.8736C65.9598 49.6598 65.4831 49.5486 65 49.5486C64.5169 49.5486 64.0403 49.6598 63.6071 49.8736C63.1738 50.0873 62.7956 50.3979 62.5016 50.7812L47.6125 72.3328C47.1571 72.9903 46.89 73.7597 46.8402 74.558C46.7904 75.3563 46.9597 76.1529 47.3299 76.8619C47.7001 77.5709 48.257 78.1652 48.9405 78.5806C49.624 78.996 50.408 79.2167 51.2078 79.2187H78.7922C79.592 79.2167 80.3761 78.996 81.0596 78.5806C81.743 78.1652 82.3 77.5709 82.6702 76.8619C83.0403 76.1529 83.2097 75.3563 83.1599 74.558C83.1101 73.7597 82.843 72.9903 82.3875 72.3328L67.4985 50.7812ZM79.0766 74.9328C79.0525 74.9879 79.0127 75.0347 78.9621 75.0673C78.9115 75.0998 78.8524 75.1166 78.7922 75.1156H51.2078C51.1477 75.1166 51.0886 75.0998 51.038 75.0673C50.9874 75.0347 50.9475 74.9879 50.9235 74.9328C50.8949 74.8834 50.8799 74.8274 50.8799 74.7703C50.8799 74.7133 50.8949 74.6572 50.9235 74.6078L64.9797 54.2953L79.036 74.6078C79.0789 74.6575 79.1057 74.719 79.113 74.7843C79.1202 74.8496 79.1075 74.9155 79.0766 74.9734V74.9328Z" fill="#E98862"/>
<path id="Vector_7" d="M65 59.9219C64.7306 59.9219 64.4723 60.0289 64.2818 60.2193C64.0914 60.4098 63.9844 60.6681 63.9844 60.9375V67.0312C63.9844 67.3006 64.0914 67.5589 64.2818 67.7494C64.4723 67.9399 64.7306 68.0469 65 68.0469C65.2694 68.0469 65.5277 67.9399 65.7182 67.7494C65.9086 67.5589 66.0156 67.3006 66.0156 67.0312V60.9375C66.0156 60.6681 65.9086 60.4098 65.7182 60.2193C65.5277 60.0289 65.2694 59.9219 65 59.9219Z" fill="#E98862"/>
<path id="Vector_8" d="M65.386 70.1594C65.1387 70.0578 64.8614 70.0578 64.6141 70.1594C64.3695 70.2677 64.174 70.4632 64.0657 70.7078C64.0369 70.8349 64.0369 70.9667 64.0657 71.0937C64.064 71.227 64.0903 71.359 64.1428 71.4815C64.1952 71.6039 64.2728 71.714 64.3703 71.8047C64.4562 71.9075 64.5686 71.9848 64.6953 72.0281C64.8169 72.0819 64.9484 72.1096 65.0813 72.1096C65.2142 72.1096 65.3456 72.0819 65.4672 72.0281C65.594 71.9848 65.7064 71.9075 65.7922 71.8047C65.8894 71.7135 65.9668 71.6034 66.0197 71.4811C66.0727 71.3588 66.1 71.227 66.1 71.0937C66.1 70.9605 66.0727 70.8287 66.0197 70.7064C65.9668 70.5841 65.8894 70.474 65.7922 70.3828C65.6846 70.2662 65.542 70.1878 65.386 70.1594Z" fill="#E98862"/>
<path id="Vector_9" d="M88.6641 27.1172C88.7553 27.2143 88.8654 27.2918 88.9877 27.3447C89.11 27.3976 89.2418 27.4249 89.375 27.4249C89.5083 27.4249 89.6401 27.3976 89.7624 27.3447C89.8847 27.2918 89.9948 27.2143 90.086 27.1172L94.1485 23.0547C94.337 22.8661 94.443 22.6104 94.443 22.3437C94.443 22.0771 94.337 21.8214 94.1485 21.6328C94.0551 21.5394 93.9443 21.4654 93.8223 21.4149C93.7003 21.3643 93.5696 21.3383 93.4375 21.3383C93.1709 21.3383 92.9152 21.4442 92.7266 21.6328L88.6641 25.6953C88.5669 25.7865 88.4895 25.8966 88.4366 26.0189C88.3836 26.1412 88.3563 26.273 88.3563 26.4062C88.3563 26.5395 88.3836 26.6713 88.4366 26.7936C88.4895 26.9159 88.5669 27.026 88.6641 27.1172Z" fill="#0CBC8B"/>
<path id="Vector_10" d="M99.0844 27.5234L95.0219 29.5547C94.8147 29.655 94.6477 29.8228 94.5484 30.0306C94.449 30.2383 94.4232 30.4736 94.4752 30.6979C94.5271 30.9222 94.6537 31.1222 94.8343 31.2651C95.0148 31.408 95.2385 31.4853 95.4688 31.4844C95.6232 31.4824 95.7755 31.4477 95.9157 31.3828L99.9782 29.3516C100.221 29.233 100.406 29.0231 100.494 28.7678C100.581 28.5126 100.564 28.233 100.445 27.9906C100.327 27.7482 100.117 27.5628 99.8616 27.4752C99.6064 27.3876 99.3268 27.4049 99.0844 27.5234Z" fill="#0CBC8B"/>
<path id="Vector_11" d="M86.3281 22.3438V18.2812C86.3281 18.0119 86.2211 17.7536 86.0307 17.5631C85.8402 17.3726 85.5819 17.2656 85.3125 17.2656C85.0431 17.2656 84.7848 17.3726 84.5943 17.5631C84.4039 17.7536 84.2969 18.0119 84.2969 18.2812V22.3438C84.2969 22.6131 84.4039 22.8714 84.5943 23.0619C84.7848 23.2524 85.0431 23.3594 85.3125 23.3594C85.5819 23.3594 85.8402 23.2524 86.0307 23.0619C86.2211 22.8714 86.3281 22.6131 86.3281 22.3438Z" fill="#0CBC8B"/>
</g>
<defs>
<clipPath id="clip0_618_3146">
<rect width="130" height="130" fill="white"/>
</clipPath>
</defs>
</svg>
